<?xml version="1.0" encoding="iso-8859-1"?>
<svg fill="#000000" height="800px" width="800px" version="1.1" id="Layer_1" xmlns="http://www.w3.org/2000/svg" xmlns:xlink="http://www.w3.org/1999/xlink" 
	 viewBox="0 0 504.3 504.3" xml:space="preserve">
<g>
	<g>
		<path d="M501.6,322.672l-2.8-10v-22c0-12.4-5.2-24.4-14.8-32.8l-14-52c-5.2-20-23.6-33.2-44-32.8l-22-38
			c-9.6-16.8-29.6-25.2-48.4-20.8c-0.4,0-1.2,0.4-1.6,0.4l-31.2-30.8c-13.6-13.6-34.8-16.8-51.6-8l-37.6-22
			c-17.2-10-38.8-6.8-52.8,6.8l-42.4-10.4c-19.2-5.2-38.8,0.8-49.2,20.8h-44c-24.4,0-45.2,18-45.2,42v298.8
			c0,24.4,20.8,44.4,45.2,44.4H156h0.4h298.4c24.4,0,44.4-20,44.4-44.4v-59.2C506.8,343.472,504.4,332.672,501.6,322.672z
			 M134.8,66.672l17.2,4.4h-41.2C117.6,63.472,126.4,64.272,134.8,66.672z M162.4,424.672c-8.8,0-16.4-7.2-16.4-16.4
			c0.4-9.2,7.6-16.4,16.4-16.4c8.8,0,16.4,7.2,16.4,16.4C178.8,417.072,171.6,424.672,162.4,424.672z M455.2,209.872l6.8,24.8
			l-25.6-44.8C445.2,193.072,452.8,200.272,455.2,209.872z M421.6,195.872l29.6,52c8,13.6,3.2,31.2-10.4,38.8l-206,118.8l174-173.6
			C418.4,222.272,422.8,208.672,421.6,195.872z M390.8,143.472l11.6,20l-34-34C377.6,129.872,386,135.072,390.8,143.472z
			 M312.4,95.072l10.4,10.4l-32.4-18.4C298.4,86.672,306.4,89.472,312.4,95.072z M226.4,67.872l16.8,9.6l-42-11.2
			C209.2,63.072,218.4,63.472,226.4,67.872z M197.2,81.472l55.2,14.8c15.2,4,24.4,19.6,20.4,34.8l-60.4,228.8v-246.4
			C212.4,100.672,206,89.472,197.2,81.472z M286.8,135.072c3.2-12.4,0.8-25.2-5.6-35.2l49.6,28.4c13.6,8,18.4,25.2,10.4,38.8
			l-118,204.8L286.8,135.072z M354.8,175.072c6-10.4,7.2-22,4.4-32.8l38.4,38.4c11.2,11.2,11.2,29.2,0,40.4l-164,164L354.8,175.072z
			 M487.2,411.872c0,15.6-14.8,28.4-30.4,28.4h-222l238-63.6c4.8-1.2,10.4-3.2,14.4-5.6V411.872z M484,347.872
			c-3.6,6.8-10,11.6-17.6,13.6l-230.8,62l213.2-123.2c12.4-7.2,20-20,21.6-33.2l16,59.6C488.4,333.872,487.2,341.072,484,347.872z"
			/>
	</g>
</g>
</svg>